<svg xmlns="http://www.w3.org/2000/svg" width="35.919" height="34.231" viewBox="0 0 35.919 34.231">
  <path id="notifications-active" d="M9.482,2.893A14.727,14.727,0,0,0,5.223,7.714,13.986,13.986,0,0,0,3.455,13.9H0A17.308,17.308,0,0,1,2.049,6.348,17.442,17.442,0,0,1,7.071.482ZM32.464,13.9a13.694,13.694,0,0,0-1.808-6.188,15.157,15.157,0,0,0-4.3-4.821L28.848.482A17.038,17.038,0,0,1,33.83,6.348,18.52,18.52,0,0,1,35.919,13.9H32.464Zm-3.375.884v9.4l3.455,3.455v1.688H3.375V27.643L6.83,24.188v-9.4A11.12,11.12,0,0,1,15.348,3.938V2.813A2.434,2.434,0,0,1,16.111.965,2.589,2.589,0,0,1,17.959.242a2.453,2.453,0,0,1,1.808.723,2.5,2.5,0,0,1,.723,1.848V3.938a11.077,11.077,0,0,1,8.6,10.848ZM17.92,34.473A3.429,3.429,0,0,1,14.545,31.1h6.83a3.642,3.642,0,0,1-.241,1.286,3.192,3.192,0,0,1-2.491,2.009,3,3,0,0,1-.723.08Z" transform="translate(0 -0.242)"/>
</svg>
